# xmcd
# 
# Track frame offsets:
#     150
#     27031
#     41975
#     68855
# 
# Disc length: 1114
# 
# Revision: 5
# Processed by: cddbd v1.5.2PL0 Copyright (c) Steve Scherf et al.
# Submitted via: fre:ac v1.0.17
# 
DISCID=30045804
DTITLE=いきものがかり - YELL/じょいふる
DYEAR=2009
DGENRE=JPop
TTITLE0=YELL
TTITLE1=じょいふる
TTITLE2=YELL～instrumental
TTITLE3=じょいふる～instrumental
EXTD=
EXTT0=
EXTT1=
EXTT2=
EXTT3=
PLAYORDER=
